<svg width="56" height="56" viewBox="0 0 56 56" fill="none" xmlns="http://www.w3.org/2000/svg">
<path d="M46.6667 21H25.6667C23.0893 21 21 23.0893 21 25.6667V46.6667C21 49.244 23.0893 51.3333 25.6667 51.3333H46.6667C49.244 51.3333 51.3333 49.244 51.3333 46.6667V25.6667C51.3333 23.0893 49.244 21 46.6667 21Z" stroke="white" stroke-width="2" stroke-linecap="round" stroke-linejoin="round"/>
<path d="M11.6667 35H9.33341C8.09574 35 6.90875 34.5083 6.03358 33.6332C5.15841 32.758 4.66675 31.571 4.66675 30.3333V9.33333C4.66675 8.09566 5.15841 6.90867 6.03358 6.0335C6.90875 5.15833 8.09574 4.66667 9.33341 4.66667H30.3334C31.5711 4.66667 32.7581 5.15833 33.6332 6.0335C34.5084 6.90867 35.0001 8.09566 35.0001 9.33333V11.6667" stroke="white" stroke-width="2" stroke-linecap="round" stroke-linejoin="round"/>
</svg>
